<svg width="166" height="38" viewBox="0 0 166 38" fill="none" xmlns="http://www.w3.org/2000/svg">
<rect width="166" height="38" rx="8" fill="url(#paint0_linear_43_63)"/>
<path d="M67.232 11.8V22.456H68.368V25.144H67.792V23H58.928V25.144H58.352V22.456H59.216C60.0053 21.5707 60.4 20.2213 60.4 18.408V11.8H67.232ZM60.992 12.344V18.424C60.992 20.184 60.64 21.528 59.936 22.456H66.64V12.344H60.992ZM77.2944 17.144V15H77.8544V23H77.2944V20.856C76.9744 21.56 76.4837 22.1253 75.8224 22.552C75.1717 22.968 74.4464 23.176 73.6464 23.176C72.4944 23.176 71.513 22.776 70.7024 21.976C69.8917 21.1653 69.4864 20.1733 69.4864 19C69.4864 17.8267 69.8917 16.84 70.7024 16.04C71.513 15.2293 72.4944 14.824 73.6464 14.824C74.4464 14.824 75.1717 15.0373 75.8224 15.464C76.4837 15.88 76.9744 16.44 77.2944 17.144ZM71.0864 21.592C71.801 22.2853 72.6597 22.632 73.6624 22.632C74.665 22.632 75.5237 22.2853 76.2384 21.592C76.9424 20.888 77.2944 20.024 77.2944 19C77.2944 17.9653 76.9424 17.1067 76.2384 16.424C75.5344 15.72 74.6757 15.368 73.6624 15.368C72.649 15.368 71.7904 15.72 71.0864 16.424C70.393 17.1173 70.0464 17.976 70.0464 19C70.0464 20.0133 70.393 20.8773 71.0864 21.592ZM81.4115 15H86.9795V23H86.4035V15.528H81.9875V19.704C81.9875 20.8667 81.7742 21.7253 81.3475 22.28C80.9315 22.8347 80.3022 23.0747 79.4595 23V22.472C80.1315 22.5253 80.6222 22.3333 80.9315 21.896C81.2515 21.4587 81.4115 20.728 81.4115 19.704V15ZM93.1445 14.824C94.3178 14.824 95.2672 15.24 95.9925 16.072C96.7285 16.904 97.0965 17.8907 97.0965 19.032C97.0965 19.1813 97.0912 19.272 97.0805 19.304H89.6405C89.7045 20.2853 90.0725 21.0907 90.7445 21.72C91.4165 22.328 92.2432 22.632 93.2245 22.632C93.8858 22.632 94.4778 22.4933 95.0005 22.216C95.5232 21.9387 95.9125 21.56 96.1685 21.08L96.6645 21.368C96.3445 21.9227 95.8805 22.3653 95.2725 22.696C94.6645 23.016 93.9818 23.176 93.2245 23.176C92.0085 23.176 91.0112 22.7867 90.2325 22.008C89.4538 21.2293 89.0645 20.2267 89.0645 19C89.0645 17.816 89.4485 16.824 90.2165 16.024C90.9845 15.224 91.9605 14.824 93.1445 14.824ZM93.1445 15.368C92.1632 15.368 91.3418 15.688 90.6805 16.328C90.0192 16.9573 89.6672 17.7733 89.6245 18.776H96.5205C96.4458 17.7413 96.0885 16.9147 95.4485 16.296C94.8298 15.6773 94.0618 15.368 93.1445 15.368ZM102.645 14.824C103.818 14.824 104.767 15.24 105.493 16.072C106.229 16.904 106.597 17.8907 106.597 19.032C106.597 19.1813 106.591 19.272 106.581 19.304H99.1405C99.2045 20.2853 99.5725 21.0907 100.245 21.72C100.917 22.328 101.743 22.632 102.725 22.632C103.386 22.632 103.978 22.4933 104.501 22.216C105.023 21.9387 105.413 21.56 105.669 21.08L106.165 21.368C105.845 21.9227 105.381 22.3653 104.773 22.696C104.165 23.016 103.482 23.176 102.725 23.176C101.509 23.176 100.511 22.7867 99.7325 22.008C98.9538 21.2293 98.5645 20.2267 98.5645 19C98.5645 17.816 98.9485 16.824 99.7165 16.024C100.485 15.224 101.461 14.824 102.645 14.824ZM102.645 15.368C101.663 15.368 100.842 15.688 100.181 16.328C99.5192 16.9573 99.1672 17.7733 99.1245 18.776H106.021C105.946 17.7413 105.589 16.9147 104.949 16.296C104.33 15.6773 103.562 15.368 102.645 15.368Z" fill="#BDBDBD"/>
<defs>
<linearGradient id="paint0_linear_43_63" x1="83" y1="0" x2="83" y2="38" gradientUnits="userSpaceOnUse">
<stop stop-color="#6EBFF4" stop-opacity="0.223958"/>
<stop offset="0.0001" stop-color="#70BFF4" stop-opacity="0.219293"/>
<stop offset="1" stop-color="#D9D9D9" stop-opacity="0"/>
</linearGradient>
</defs>
</svg>
