<svg width="20" height="20" viewBox="0 0 20 20" fill="none" xmlns="http://www.w3.org/2000/svg">
<path d="M14.5333 7.775L13.6167 7.775L13.6167 5.33333C13.6167 4.37413 13.2356 3.45422 12.5574 2.77596C11.8791 2.09771 10.9592 1.71667 10 1.71667C9.0408 1.71667 8.12088 2.09771 7.44263 2.77596C6.76437 3.45422 6.38333 4.37413 6.38333 5.33333L6.38333 7.775L5.46666 7.775C4.91413 7.775 4.38423 7.99449 3.99353 8.38519C3.60282 8.7759 3.38333 9.3058 3.38333 9.85833L3.38333 16.2C3.38487 16.7521 3.60486 17.2811 3.99523 17.6714C4.38559 18.0618 4.9146 18.2818 5.46666 18.2833L14.5333 18.2833C15.0854 18.2818 15.6144 18.0618 16.0048 17.6714C16.3951 17.2811 16.6151 16.7521 16.6167 16.2L16.6167 9.85833C16.6167 9.3058 16.3972 8.7759 16.0065 8.38519C15.6158 7.99449 15.0859 7.775 14.5333 7.775ZM7.21666 5.33333C7.21666 4.59515 7.50991 3.8872 8.03188 3.36522C8.55386 2.84324 9.26181 2.55 10 2.55C10.7382 2.55 11.4461 2.84324 11.9681 3.36522C12.4901 3.8872 12.7833 4.59515 12.7833 5.33333L12.7833 7.775L7.21666 7.775L7.21666 5.33333ZM15.7833 16.2C15.7809 16.5308 15.6485 16.8473 15.4146 17.0812C15.1807 17.3151 14.8641 17.4476 14.5333 17.45L5.46666 17.45C5.13589 17.4476 4.81934 17.3151 4.58543 17.0812C4.35153 16.8473 4.21906 16.5308 4.21666 16.2L4.21666 9.85833C4.21666 9.52681 4.34836 9.20887 4.58278 8.97445C4.8172 8.74003 5.13514 8.60833 5.46666 8.60833L14.5333 8.60833C14.8649 8.60833 15.1828 8.74003 15.4172 8.97445C15.6516 9.20887 15.7833 9.52681 15.7833 9.85833L15.7833 16.2Z" fill="#98F9FF"/>
<path d="M10.8333 12.4583C10.8338 12.604 10.7955 12.7472 10.7222 12.8732C10.649 12.9992 10.5435 13.1033 10.4167 13.175L10.4167 14.425C10.4167 14.5355 10.3728 14.6415 10.2946 14.7196C10.2165 14.7978 10.1105 14.8417 9.99999 14.8417C9.88949 14.8417 9.78351 14.7978 9.70537 14.7196C9.62723 14.6415 9.58333 14.5355 9.58333 14.425L9.58333 13.175C9.45647 13.1033 9.35099 12.9992 9.27776 12.8732C9.20453 12.7472 9.16618 12.604 9.16666 12.4583C9.16666 12.2373 9.25446 12.0254 9.41074 11.8691C9.56702 11.7128 9.77898 11.625 9.99999 11.625C10.221 11.625 10.433 11.7128 10.5892 11.8691C10.7455 12.0254 10.8333 12.2373 10.8333 12.4583Z" fill="#98F9FF"/>
</svg>
