<svg width="20" height="20" viewBox="0 0 20 20" fill="none" xmlns="http://www.w3.org/2000/svg">
<path d="M17.8516 16.7188C17.2249 15.6388 16.3827 14.6993 15.3774 13.9587C14.372 13.2181 13.2251 12.6924 12.0078 12.4141C13.1479 11.9487 14.0909 11.1017 14.6755 10.0179C15.2602 8.93412 15.4502 7.6809 15.2131 6.47254C14.9759 5.26417 14.3264 4.17572 13.3755 3.3933C12.4246 2.61088 11.2314 2.18309 10 2.18309C8.76859 2.18309 7.57542 2.61088 6.62453 3.3933C5.67364 4.17572 5.02408 5.26417 4.78694 6.47254C4.54981 7.6809 4.73981 8.93412 5.32447 10.0179C5.90912 11.1017 6.85212 11.9487 7.99219 12.4141C6.77495 12.6924 5.62799 13.2181 4.62266 13.9587C3.61732 14.6993 2.77512 15.6388 2.14844 16.7188C2.107 16.7913 2.09607 16.8773 2.11805 16.9579C2.14002 17.0384 2.19311 17.107 2.26563 17.1484C2.33815 17.1899 2.42416 17.2008 2.50475 17.1788C2.58533 17.1569 2.65388 17.1038 2.69532 17.0313C3.43459 15.7477 4.49901 14.6817 5.78138 13.9404C7.06375 13.1991 8.51881 12.8088 10 12.8088C11.4812 12.8088 12.9363 13.1991 14.2186 13.9404C15.501 14.6817 16.5654 15.7477 17.3047 17.0313C17.333 17.0786 17.373 17.1179 17.4209 17.1453C17.4688 17.1727 17.523 17.1872 17.5781 17.1875C17.6325 17.1865 17.6859 17.1731 17.7344 17.1484C17.8058 17.106 17.858 17.0375 17.8799 16.9573C17.9017 16.8771 17.8916 16.7916 17.8516 16.7188ZM5.31251 7.5C5.31251 6.5729 5.58742 5.66662 6.10249 4.89577C6.61756 4.12491 7.34965 3.5241 8.20618 3.16932C9.06271 2.81453 10.0052 2.7217 10.9145 2.90257C11.8238 3.08344 12.659 3.52988 13.3146 4.18544C13.9701 4.841 14.4166 5.67623 14.5974 6.58552C14.7783 7.4948 14.6855 8.4373 14.3307 9.29383C13.9759 10.1504 13.3751 10.8824 12.6042 11.3975C11.8334 11.9126 10.9271 12.1875 10 12.1875C8.7568 12.1875 7.56452 11.6936 6.68544 10.8146C5.80637 9.93549 5.31251 8.7432 5.31251 7.5Z" fill="#98F9FF"/>
</svg>
